<svg width="749" height="399" viewBox="0 0 749 399" fill="none" xmlns="http://www.w3.org/2000/svg">
<g clip-path="url(#clip0_2386_197749)">
<g clip-path="url(#clip1_2386_197749)">
<path d="M706.387 235.43C694.066 221.273 672.479 210.54 645.887 204.581C654.688 178.785 657.016 154.594 651.436 136.52L650.11 132.222L646.195 130.029C634.593 123.531 618.72 120.083 600.266 120.083C589.137 120.083 576.129 121.441 562.024 124.404C561.938 90.2665 554.234 60.4107 539.379 43.155L536.443 39.7548L531.991 39.3178C530.113 39.143 528.156 39.0477 526.159 39.0477C500.948 39.0477 470.095 53.4592 441.475 76.7448C425.318 39.9216 402.065 11.3528 378.015 1.66836L373.863 0L369.712 1.66836C345.67 11.3528 322.417 39.9137 306.252 76.7448C277.632 53.4592 246.778 39.0477 221.568 39.0477C219.571 39.0477 217.614 39.143 215.735 39.3178L211.284 39.7548L208.347 43.155C193.501 60.3948 185.797 90.2427 185.702 124.357C171.677 121.425 158.74 120.075 147.666 120.075C129.212 120.075 113.332 123.523 101.737 130.021L97.806 132.222L96.48 136.52C90.8839 154.65 93.236 178.944 102.108 204.828C75.974 210.826 54.7813 221.472 42.6103 235.446L39.6663 238.838L39.8478 243.335C42.3814 304.779 142.875 398.946 261.901 398.946C299.701 398.946 336.845 389.667 372.474 371.569L373.848 372.816L375.923 370.925C411.742 389.19 449.084 398.286 487.08 398.286H487.096C606.115 398.286 706.608 304.445 709.142 243.001L709.323 238.83L706.387 235.43ZM600.258 142.598C612.618 142.598 623.179 144.345 631.151 147.682C633.527 160.584 631.199 179.453 623.44 200.831C614.592 199.83 605.388 199.298 595.941 199.298C581.039 199.298 565.371 200.688 549.451 203.612C549.798 202.516 550.216 201.348 550.54 200.291C555.884 182.861 559.27 165.089 560.904 147.873C575.198 144.345 588.616 142.598 600.258 142.598ZM218.545 193.642C214.504 180.462 211.773 167.432 210.092 154.896C234.97 163.945 261.073 178.15 284.53 198.043C285.272 211.04 287.04 224.816 290.3 239.069C269.052 225.571 246.557 215.879 224.031 209.475C221.892 203.882 220.045 198.535 218.545 193.642ZM310.262 140.127C311.73 131.856 313.624 123.896 315.81 116.206C323.695 124.698 331.336 134.113 338.455 144.472C345.962 155.396 354.494 169.855 361.795 187.35C356.12 202.468 351.424 219.43 348.74 238.004C335.859 217.205 321.036 200.395 306.599 187.111C306.284 169.053 307.988 152.941 310.262 140.127ZM437.441 140.127C439.722 152.981 441.435 169.164 441.112 187.302C426.675 200.617 411.868 217.46 399.01 238.282C396.327 219.605 391.623 202.548 385.916 187.35C393.217 169.855 401.757 155.396 409.256 144.472C416.375 134.113 424.008 124.698 431.901 116.206C434.079 123.896 435.973 131.856 437.441 140.127ZM537.603 154.983C535.922 167.496 533.191 180.493 529.158 193.65C527.627 198.647 525.74 204.113 523.538 209.841C500.972 216.387 478.445 226.246 457.213 239.943C460.584 225.452 462.399 211.445 463.165 198.242C486.615 178.301 512.709 164.064 537.603 154.983ZM346.617 283.837C346.711 285.696 346.83 287.563 346.972 289.438C338.763 279.38 330.018 270.275 320.807 262.084C315.818 248.952 312.385 236.034 310.151 223.569C324.808 240.69 337.414 260.71 346.617 283.837ZM437.497 223.879C435.168 236.765 431.537 250.128 426.249 263.713C417.212 271.92 408.64 281.056 400.597 291.09C400.778 288.842 400.944 286.601 401.063 284.385C410.234 261.163 422.831 241.071 437.497 223.879ZM413.794 330.948C427.891 312.66 438.294 294.014 445.816 275.63C466.859 257.58 489.425 245.528 510.815 237.504C493.063 270.585 463.354 307.114 413.794 330.948ZM378.828 279.388C377.092 284.027 375.45 288.794 373.95 293.72C372.379 288.572 370.651 283.606 368.828 278.768C368.22 259.574 370.264 241.81 373.848 225.579C377.47 241.977 379.499 259.955 378.828 279.388ZM301.2 273.946C308.77 292.87 319.378 312.103 333.909 330.948C284.049 306.971 254.285 270.14 236.573 236.908C257.765 244.678 280.197 256.372 301.2 273.946ZM320.002 349.054C254.758 344.803 194.874 311.206 154.012 255.355C146.009 244.416 139.378 233.428 133.987 222.735C140.089 222.21 146.379 221.853 153.049 221.853C164.344 221.853 184.1 222.878 207.534 228.28C224.765 268.17 257.813 317.728 320.002 349.054ZM540.027 228.622C564.084 222.925 584.417 221.853 595.941 221.853C602.223 221.853 608.198 222.163 613.976 222.624C608.569 233.349 601.931 244.376 593.896 255.355C552.987 311.277 492.992 344.899 427.654 349.07C489.701 317.847 522.749 268.456 540.027 228.622ZM525.251 61.5786C534.58 75.3863 540.263 100.38 539.561 130.283C515.037 137.974 488.556 150.407 463.228 169.021C462.573 156.731 461.136 145.64 459.455 136.162C457.174 123.316 453.914 110.779 449.928 98.7911C477.561 74.8143 505.984 61.9679 525.251 61.5786ZM373.855 24.5567C390.778 33.8122 410.203 58.6788 423.826 92.5228C411.876 104.241 400.652 117.405 390.857 131.658C385.442 139.539 379.538 149.112 373.855 160.171C368.165 149.104 362.269 139.531 356.854 131.658C347.067 117.405 335.843 104.241 323.885 92.5228C337.508 58.6788 356.925 33.8122 373.855 24.5567ZM222.452 61.5786C241.727 61.9599 270.142 74.8143 297.767 98.7831C293.781 110.772 290.513 123.308 288.24 136.155C286.567 145.601 285.138 156.644 284.475 168.878C259.139 150.296 232.65 137.878 208.134 130.212C207.448 100.34 213.123 75.3783 222.452 61.5786ZM116.757 147.682C124.729 144.345 135.29 142.598 147.65 142.598C159.237 142.598 172.576 144.322 186.792 147.809C188.425 165.041 191.812 182.829 197.163 200.283C197.471 201.292 197.865 202.404 198.197 203.445C182.742 200.688 167.533 199.338 153.049 199.338C143.23 199.338 133.695 199.926 124.532 201.006C116.726 179.556 114.381 160.616 116.757 147.682ZM62.6585 247.037C71.8776 238.687 88.4686 230.735 110.719 226.071C117.404 240.419 125.881 254.871 136 268.71C179.088 327.619 241.632 363.894 310.23 370.774C294.286 374.508 278.153 376.423 261.901 376.423C153.396 376.423 69.7228 293.95 62.6585 247.037ZM487.088 376.423C470.726 376.423 454.482 374.484 438.436 370.703C506.734 363.632 568.986 327.397 611.916 268.71C622.082 254.815 630.591 240.3 637.292 225.889C660.024 230.52 676.994 238.568 686.339 247.037C679.267 293.95 595.593 376.423 487.088 376.423Z" fill="#180075"/>
</g>
</g>
<defs>
<clipPath id="clip0_2386_197749">
<rect width="748.989" height="398.946" fill="white"/>
</clipPath>
<clipPath id="clip1_2386_197749">
<rect width="669.657" height="398.946" fill="white" transform="translate(39.6663)"/>
</clipPath>
</defs>
</svg>
